<svg width="1425" height="115" viewBox="0 0 1425 115" fill="none" xmlns="http://www.w3.org/2000/svg">
<path d="M1368.64 113.623L1368.39 114.3H1369.11H1380.51H1380.86L1380.98 113.977L1423.58 1.17665L1423.83 0.5H1423.11H1411.71H1411.36L1411.24 0.823348L1368.64 113.623Z" stroke="#F5F5F5"/>
<path d="M1296.69 113.623L1296.43 114.3H1297.16H1308.56H1308.9L1309.02 113.977L1351.62 1.17665L1351.88 0.5H1351.16H1339.76H1339.41L1339.29 0.823348L1296.69 113.623Z" stroke="#F5F5F5"/>
<path d="M1224.74 113.623L1224.48 114.3H1225.2H1236.6H1236.95L1237.07 113.977L1279.67 1.17665L1279.93 0.5H1279.2H1267.8H1267.46L1267.34 0.823348L1224.74 113.623Z" stroke="#F5F5F5"/>
<path d="M1152.78 113.623L1152.53 114.3H1153.25H1164.65H1165L1165.12 113.977L1207.72 1.17665L1207.97 0.5H1207.25H1195.85H1195.5L1195.38 0.823348L1152.78 113.623Z" stroke="#F5F5F5"/>
<path d="M1080.83 113.623L1080.57 114.3H1081.3H1092.7H1093.04L1093.16 113.977L1135.76 1.17665L1136.02 0.5H1135.3H1123.9H1123.55L1123.43 0.823348L1080.83 113.623Z" stroke="#F5F5F5"/>
<path d="M1008.88 113.623L1008.62 114.3H1009.34H1020.74H1021.09L1021.21 113.977L1063.81 1.17665L1064.07 0.5H1063.34H1051.94H1051.6L1051.48 0.823348L1008.88 113.623Z" stroke="#F5F5F5"/>
<path d="M936.923 113.623L936.667 114.3H937.391H948.791H949.136L949.258 113.977L991.858 1.17665L992.114 0.5H991.391H979.991H979.645L979.523 0.823348L936.923 113.623Z" stroke="#F5F5F5"/>
<path d="M864.97 113.623L864.714 114.3H865.438H876.838H877.183L877.305 113.977L919.905 1.17665L920.161 0.5H919.438H908.037H907.692L907.57 0.823348L864.97 113.623Z" stroke="#F5F5F5"/>
<path d="M793.017 113.623L792.761 114.3H793.484H804.884H805.23L805.352 113.977L847.952 1.17665L848.208 0.5H847.484H836.084H835.739L835.617 0.823348L793.017 113.623Z" stroke="#F5F5F5"/>
<path d="M721.063 113.623L720.808 114.3H721.531H732.931H733.277L733.399 113.977L775.999 1.17665L776.255 0.5H775.531H764.131H763.786L763.663 0.823348L721.063 113.623Z" stroke="#F5F5F5"/>
<path d="M649.11 113.623L648.855 114.3H649.578H660.978H661.324L661.446 113.977L704.046 1.17665L704.301 0.5H703.578H692.178H691.832L691.71 0.823348L649.11 113.623Z" stroke="#F5F5F5"/>
<path d="M577.157 113.623L576.902 114.3H577.625H589.025H589.371L589.493 113.977L632.093 1.17665L632.348 0.5H631.625H620.225H619.879L619.757 0.823348L577.157 113.623Z" stroke="#F5F5F5"/>
<path d="M505.204 113.623L504.949 114.3H505.672H517.072H517.418L517.54 113.977L560.14 1.17665L560.395 0.5H559.672H548.272H547.926L547.804 0.823348L505.204 113.623Z" stroke="#F5F5F5"/>
<path d="M433.251 113.623L432.995 114.3H433.719H445.119H445.464L445.586 113.977L488.187 1.17665L488.442 0.5H487.719H476.319H475.973L475.851 0.823348L433.251 113.623Z" stroke="#F5F5F5"/>
<path d="M361.298 113.623L361.042 114.3H361.766H373.166H373.511L373.633 113.977L416.233 1.17665L416.489 0.5H415.766H404.366H404.02L403.898 0.823348L361.298 113.623Z" stroke="#F5F5F5"/>
<path d="M289.345 113.623L289.089 114.3H289.812H301.212H301.558L301.68 113.977L344.28 1.17665L344.536 0.5H343.812H332.413H332.067L331.945 0.823348L289.345 113.623Z" stroke="#F5F5F5"/>
<path d="M217.392 113.623L217.136 114.3H217.859H229.259H229.605L229.727 113.977L272.327 1.17665L272.583 0.5H271.859H260.459H260.114L259.992 0.823348L217.392 113.623Z" stroke="#F5F5F5"/>
<path d="M145.438 113.623L145.183 114.3H145.906H157.306H157.652L157.774 113.977L200.374 1.17665L200.63 0.5H199.906H188.506H188.161L188.039 0.823348L145.438 113.623Z" stroke="#F5F5F5"/>
<path d="M73.4854 113.623L73.2298 114.3H73.9531H85.3531H85.6988L85.8209 113.977L128.421 1.17665L128.676 0.5H127.953H116.553H116.207L116.085 0.823348L73.4854 113.623Z" stroke="#F5F5F5"/>
<path d="M1.53225 113.623L1.2767 114.3H2H13.4H13.7456L13.8678 113.977L56.4678 1.17665L56.7233 0.5H56H44.6H44.2544L44.1322 0.823348L1.53225 113.623Z" stroke="#F5F5F5"/>
</svg>
