<svg width="42" height="42" viewBox="0 0 42 42" fill="none" xmlns="http://www.w3.org/2000/svg">
<path d="M14.048 33.8183C14.048 33.992 13.8532 34.131 13.6077 34.131C13.3282 34.157 13.1335 34.0181 13.1335 33.8183C13.1335 33.6446 13.3282 33.5057 13.5738 33.5057C13.8278 33.4796 14.048 33.6186 14.048 33.8183ZM11.4145 33.4275C11.3552 33.6012 11.5246 33.801 11.7786 33.8531C11.9988 33.9399 12.2528 33.8531 12.3036 33.6794C12.3544 33.5057 12.1935 33.3059 11.9395 33.2278C11.7194 33.167 11.4738 33.2538 11.4145 33.4275ZM15.1573 33.2799C14.9117 33.3407 14.7423 33.5057 14.7677 33.7054C14.7931 33.8791 15.0133 33.992 15.2673 33.9312C15.5129 33.8704 15.6823 33.7054 15.6569 33.5317C15.6315 33.3667 15.4028 33.2538 15.1573 33.2799ZM20.729 0C8.98427 0 0 9.14502 0 21.1907C0 30.8221 5.91048 39.0639 14.3528 41.9646C15.4367 42.1644 15.8177 41.4783 15.8177 40.9138C15.8177 40.3753 15.7923 37.4051 15.7923 35.5813C15.7923 35.5813 9.86492 36.884 8.62016 32.9933C8.62016 32.9933 7.65484 30.466 6.26613 29.8147C6.26613 29.8147 4.32702 28.4512 6.40161 28.4772C6.40161 28.4772 8.51008 28.6509 9.67016 30.7179C11.5246 34.0702 14.6323 33.1062 15.8431 32.533C16.0379 31.1434 16.5883 30.1794 17.198 29.6062C12.4645 29.0678 7.68871 28.3643 7.68871 20.0096C7.68871 17.6213 8.33226 16.4228 9.6871 14.8943C9.46694 14.3298 8.74718 12.0023 9.90726 8.99738C11.677 8.43287 15.75 11.3423 15.75 11.3423C17.4435 10.8559 19.2641 10.6041 21.0677 10.6041C22.8714 10.6041 24.6919 10.8559 26.3855 11.3423C26.3855 11.3423 30.4585 8.42419 32.2282 8.99738C33.3883 12.011 32.6685 14.3298 32.4484 14.8943C33.8032 16.4315 34.6331 17.63 34.6331 20.0096C34.6331 28.3904 29.6456 29.0591 24.9121 29.6062C25.6911 30.2923 26.3516 31.595 26.3516 33.636C26.3516 36.5627 26.3262 40.1842 26.3262 40.8964C26.3262 41.4609 26.7157 42.147 27.7911 41.9472C36.2589 39.0639 42 30.8221 42 21.1907C42 9.14502 32.4738 0 20.729 0ZM8.23065 29.9536C8.12056 30.0405 8.14597 30.2402 8.28992 30.4052C8.4254 30.5442 8.62016 30.605 8.73024 30.4921C8.84032 30.4052 8.81492 30.2055 8.67097 30.0405C8.53548 29.9015 8.34073 29.8407 8.23065 29.9536ZM7.31613 29.2502C7.25686 29.3631 7.34153 29.502 7.51089 29.5889C7.64637 29.6757 7.81573 29.6497 7.875 29.5281C7.93427 29.4152 7.8496 29.2762 7.68024 29.1894C7.51089 29.1373 7.3754 29.1633 7.31613 29.2502ZM10.0597 32.3419C9.92419 32.4548 9.975 32.7154 10.1698 32.8804C10.3645 33.0801 10.6101 33.1062 10.7202 32.9672C10.8302 32.8543 10.7794 32.5938 10.6101 32.4288C10.4238 32.229 10.1698 32.203 10.0597 32.3419ZM9.09435 31.0653C8.95887 31.1521 8.95887 31.3779 9.09435 31.5777C9.22984 31.7774 9.45847 31.8643 9.56855 31.7774C9.70403 31.6645 9.70403 31.4387 9.56855 31.239C9.45 31.0392 9.22984 30.9524 9.09435 31.0653Z" fill="#0E0E0E"/>
</svg>
