<svg width="24" height="18" viewBox="0 0 24 18" fill="none" xmlns="http://www.w3.org/2000/svg">
<path d="M23.2246 6.02865C23.4024 5.88737 23.6667 6.01953 23.6667 6.24284V15.5625C23.6667 16.7702 22.6869 17.75 21.4792 17.75H2.52084C1.31316 17.75 0.333344 16.7702 0.333344 15.5625V6.2474C0.333344 6.01953 0.593109 5.89193 0.775401 6.0332C1.79623 6.82617 3.14975 7.83333 7.79819 11.2103C8.75978 11.9121 10.3822 13.3887 12 13.3796C13.627 13.3932 15.2813 11.8848 16.2064 11.2103C20.8548 7.83333 22.2038 6.82161 23.2246 6.02865ZM12 11.9167C13.0573 11.9349 14.5794 10.5859 15.3451 10.0299C21.3926 5.64128 21.8529 5.25846 23.2474 4.16471C23.5117 3.95964 23.6667 3.64062 23.6667 3.30339V2.4375C23.6667 1.22982 22.6869 0.25 21.4792 0.25H2.52084C1.31316 0.25 0.333344 1.22982 0.333344 2.4375V3.30339C0.333344 3.64062 0.488291 3.95508 0.752614 4.16471C2.14715 5.25391 2.60743 5.64128 8.65496 10.0299C9.42058 10.5859 10.9427 11.9349 12 11.9167Z" fill="#0E0E0E"/>
</svg>
