<svg width="17" height="16" viewBox="0 0 17 16" fill="none" xmlns="http://www.w3.org/2000/svg">
<path d="M10.2544 5.79347C12.1215 7.6625 12.0958 10.659 10.2656 12.4994C10.2622 12.5031 10.2581 12.5072 10.2544 12.511L8.15437 14.611C6.30218 16.4631 3.28878 16.4629 1.43687 14.611C-0.415318 12.7591 -0.415318 9.74534 1.43687 7.89347L2.59643 6.73391C2.90393 6.42641 3.4335 6.63078 3.44937 7.06535C3.46962 7.61916 3.56893 8.17556 3.75218 8.71287C3.81425 8.89481 3.7699 9.09606 3.63396 9.232L3.225 9.64097C2.34918 10.5168 2.32171 11.9428 3.1889 12.8272C4.06465 13.7203 5.50409 13.7256 6.38656 12.8431L8.48656 10.7435C9.36753 9.8625 9.36384 8.43856 8.48656 7.56128C8.3709 7.44585 8.2544 7.35616 8.1634 7.2935C8.09903 7.24929 8.04587 7.19065 8.00818 7.12226C7.97049 7.05386 7.9493 6.9776 7.94631 6.89957C7.93393 6.56935 8.05093 6.22907 8.31187 5.96813L8.96981 5.31016C9.14234 5.13763 9.413 5.11644 9.61306 5.25607C9.84217 5.41605 10.0568 5.59588 10.2544 5.79347ZM14.6586 1.38904C12.8067 -0.462889 9.79328 -0.463139 7.94109 1.38904L5.84109 3.48904C5.83734 3.49279 5.83328 3.49685 5.82984 3.5006C3.99965 5.34097 3.974 8.3375 5.84109 10.2065C6.03868 10.4041 6.25327 10.5839 6.48237 10.7439C6.68243 10.8835 6.95312 10.8623 7.12562 10.6898L7.78356 10.0318C8.0445 9.7709 8.1615 9.43062 8.14912 9.10041C8.14613 9.02237 8.12494 8.94611 8.08725 8.87771C8.04956 8.80932 7.99641 8.75068 7.93203 8.70647C7.84103 8.64381 7.72453 8.55412 7.60887 8.43869C6.73159 7.56141 6.7279 6.13747 7.60887 5.25651L9.70887 3.15682C10.5913 2.27436 12.0307 2.27967 12.9065 3.17276C13.7737 4.05713 13.7463 5.48319 12.8704 6.359L12.4615 6.76797C12.3255 6.90391 12.2812 7.10516 12.3432 7.2871C12.5265 7.82441 12.6258 8.38081 12.6461 8.93462C12.662 9.36918 13.1915 9.57356 13.499 9.26606L14.6586 8.1065C16.5108 6.25466 16.5108 3.24092 14.6586 1.38904Z" fill="#F5F5F5"/>
</svg>
